<?xml version="1.0" encoding="UTF-8" standalone="no"?>
<!-- Created with Inkscape (http://www.inkscape.org/) -->

<svg
   xmlns:dc="http://purl.org/dc/elements/1.1/"
   xmlns:cc="http://creativecommons.org/ns#"
   xmlns:rdf="http://www.w3.org/1999/02/22-rdf-syntax-ns#"
   xmlns:svg="http://www.w3.org/2000/svg"
   xmlns="http://www.w3.org/2000/svg"
   xmlns:xlink="http://www.w3.org/1999/xlink"
   xmlns:sodipodi="http://sodipodi.sourceforge.net/DTD/sodipodi-0.dtd"
   xmlns:inkscape="http://www.inkscape.org/namespaces/inkscape"
   width="100"
   height="100"
   viewBox="0 0 99.999997 99.999997"
   id="svg2"
   version="1.1"
   inkscape:version="0.91 r13725"
   sodipodi:docname="development-card.svg"
   inkscape:export-filename="C:\Users\Leif\Programmering\HTML5\Vennni\www\img\dev-card-back.png"
   inkscape:export-xdpi="299.9946"
   inkscape:export-ydpi="299.9946">
  <defs
     id="defs4">
    <linearGradient
       inkscape:collect="always"
       id="linearGradient6432">
      <stop
         style="stop-color:#c27969;stop-opacity:1;"
         offset="0"
         id="stop6434" />
      <stop
         style="stop-color:#633328;stop-opacity:1"
         offset="1"
         id="stop6436" />
    </linearGradient>
    <linearGradient
       inkscape:collect="always"
       xlink:href="#linearGradient6432"
       id="linearGradient6446"
       x1="-891.26843"
       y1="580.00311"
       x2="-901.67291"
       y2="600.41876"
       gradientUnits="userSpaceOnUse"
       gradientTransform="matrix(0.5879367,-0.80890694,0.9478186,0.31881013,7.25,81.5)" />
  </defs>
  <sodipodi:namedview
     id="base"
     pagecolor="#ffffff"
     bordercolor="#666666"
     borderopacity="1.0"
     inkscape:pageopacity="0.0"
     inkscape:pageshadow="2"
     inkscape:zoom="2.8284271"
     inkscape:cx="28.527199"
     inkscape:cy="55.180085"
     inkscape:document-units="px"
     inkscape:current-layer="layer1"
     showgrid="false"
     inkscape:window-width="1368"
     inkscape:window-height="660"
     inkscape:window-x="2170"
     inkscape:window-y="250"
     inkscape:window-maximized="0"
     units="px" />
  <metadata
     id="metadata7">
    <rdf:RDF>
      <cc:Work
         rdf:about="">
        <dc:format>image/svg+xml</dc:format>
        <dc:type
           rdf:resource="http://purl.org/dc/dcmitype/StillImage" />
        <dc:title></dc:title>
      </cc:Work>
    </rdf:RDF>
  </metadata>
  <g
     inkscape:label="Layer 1"
     inkscape:groupmode="layer"
     id="layer1"
     transform="translate(0,-952.36223)">
    <rect
       style="opacity:1;fill:#d2e8e2;fill-opacity:1;fill-rule:nonzero;stroke:#656ef9;stroke-width:1.10000002;stroke-linecap:square;stroke-linejoin:bevel;stroke-miterlimit:4;stroke-dasharray:none;stroke-dashoffset:0;stroke-opacity:1"
       id="rect6993"
       width="94.239555"
       height="93.902031"
       x="3.1731873"
       y="955.2951"
       ry="2.8556967" />
    <path
       inkscape:connector-curvature="0"
       d=""
       style="opacity:1;fill:url(#linearGradient6446);fill-opacity:1;fill-rule:nonzero;stroke:none;stroke-width:2;stroke-linecap:square;stroke-linejoin:bevel;stroke-miterlimit:4;stroke-dasharray:none;stroke-dashoffset:0;stroke-opacity:1"
       id="path6430"
       inkscape:transform-center-x="0.40717073"
       ry="3.8505147"
       rx="4.4504189"
       cy="586.39716"
       cx="-893.72418" />
    <path
       style="fill:none;fill-rule:evenodd;stroke:#000000;stroke-width:3;stroke-linecap:butt;stroke-linejoin:miter;stroke-miterlimit:4;stroke-dasharray:none;stroke-opacity:1"
       d="m 47.38542,1048.361 0,-13.8333 10.823579,0 0,-12.9311 12.326854,0 0,-12.3296 13.529473,0 0,-13.23182 12.928164,0"
       id="path11493"
       inkscape:connector-curvature="0" />
    <path
       inkscape:connector-curvature="0"
       id="path12179"
       d="m 52.799301,955.73009 0,13.83333 -10.82354,0 0,12.9311 -12.3269,0 0,12.3296 -13.5295,0 0,13.23178 -12.9280999,0"
       style="fill:none;fill-rule:evenodd;stroke:#000000;stroke-width:3;stroke-linecap:butt;stroke-linejoin:miter;stroke-miterlimit:4;stroke-dasharray:none;stroke-opacity:1" />
    <path
       style="opacity:1;fill:#000000;fill-opacity:1;fill-rule:nonzero;stroke:#000000;stroke-width:1.10000002;stroke-linecap:square;stroke-linejoin:bevel;stroke-miterlimit:4;stroke-dasharray:none;stroke-dashoffset:0;stroke-opacity:1"
       d="M 3.7077508,29.806008 C 3.7077508,5.6905316 3.753356,4.7090092 4.9097277,3.9368792 5.1236851,3.7940161 15.600403,3.6746918 28.191323,3.6717142 l 22.892582,-0.00541 0,6.0104076 0,6.0104082 -5.303301,0 -5.303301,0 0,6.363961 0,6.363961 -6.187184,0 -6.187184,0 0,6.187184 0,6.187184 -6.894291,0 -6.894291,0 0,6.540738 0,6.540738 -5.3033013,0 -5.3033009,0 0,-24.064874 z"
       id="path12181"
       inkscape:connector-curvature="0"
       transform="translate(0,952.36223)" />
    <path
       inkscape:connector-curvature="0"
       id="path12183"
       d="m 96.692315,1022.1572 c 0,24.1155 -0.046,25.097 -1.202,25.8691 -0.214,0.1429 -10.6907,0.2622 -23.2816,0.2652 l -22.8926,0.01 0,-6.0104 0,-6.0104 5.3033,0 5.3033,0 0,-6.364 0,-6.3639 6.187201,0 6.1872,0 0,-6.1872 0,-6.1872 6.8943,0 6.8943,0 0,-6.5407 0,-6.54095 5.303299,0 5.3033,0 0,24.06505 z"
       style="opacity:1;fill:#000000;fill-opacity:1;fill-rule:nonzero;stroke:#000000;stroke-width:1.10000002;stroke-linecap:square;stroke-linejoin:bevel;stroke-miterlimit:4;stroke-dasharray:none;stroke-dashoffset:0;stroke-opacity:1" />
    <rect
       ry="2.8556967"
       y="955.2951"
       x="3.1731873"
       height="93.902031"
       width="94.239555"
       id="rect12185"
       style="opacity:1;fill:none;fill-opacity:1;fill-rule:nonzero;stroke:#656ef9;stroke-width:1.10000002;stroke-linecap:square;stroke-linejoin:bevel;stroke-miterlimit:4;stroke-dasharray:none;stroke-dashoffset:0;stroke-opacity:1" />
  </g>
</svg>
