<?xml version="1.0" encoding="UTF-8" standalone="no"?>
<!-- Created with Inkscape (http://www.inkscape.org/) -->

<svg
   xmlns:dc="http://purl.org/dc/elements/1.1/"
   xmlns:cc="http://creativecommons.org/ns#"
   xmlns:rdf="http://www.w3.org/1999/02/22-rdf-syntax-ns#"
   xmlns:svg="http://www.w3.org/2000/svg"
   xmlns="http://www.w3.org/2000/svg"
   xmlns:xlink="http://www.w3.org/1999/xlink"
   xmlns:sodipodi="http://sodipodi.sourceforge.net/DTD/sodipodi-0.dtd"
   xmlns:inkscape="http://www.inkscape.org/namespaces/inkscape"
   width="100"
   height="100"
   viewBox="0 0 99.999997 99.999997"
   id="svg2"
   version="1.1"
   inkscape:version="0.91 r13725"
   sodipodi:docname="stone.svg"
   inkscape:export-filename="C:\Users\Leif\Programmering\HTML5\Vennni\www\img\stone.png"
   inkscape:export-xdpi="299.9946"
   inkscape:export-ydpi="299.9946">
  <defs
     id="defs4">
    <linearGradient
       inkscape:collect="always"
       id="linearGradient6432">
      <stop
         style="stop-color:#c27969;stop-opacity:1;"
         offset="0"
         id="stop6434" />
      <stop
         style="stop-color:#633328;stop-opacity:1"
         offset="1"
         id="stop6436" />
    </linearGradient>
    <linearGradient
       inkscape:collect="always"
       xlink:href="#linearGradient6432"
       id="linearGradient6446"
       x1="-891.26843"
       y1="580.00311"
       x2="-901.67291"
       y2="600.41876"
       gradientUnits="userSpaceOnUse"
       gradientTransform="matrix(0.5879367,-0.80890694,0.9478186,0.31881013,7.25,81.5)" />
    <filter
       height="1.3"
       width="1.3"
       y="-0.15"
       x="-0.15"
       inkscape:menu-tooltip="Van Gogh painting effect for bitmaps"
       inkscape:menu="Distort"
       inkscape:label="Pixel Smear"
       style="color-interpolation-filters:sRGB;"
       id="filter7350">
      <feTurbulence
         type="fractalNoise"
         numOctaves="3"
         baseFrequency="0.25 0.4"
         seed="5"
         id="feTurbulence7352" />
      <feColorMatrix
         result="result5"
         values="1 0 0 0 0 0 1 0 0 0 0 0 1 0 0 0 0 0 1 0 "
         id="feColorMatrix7354" />
      <feComposite
         in="SourceGraphic"
         operator="in"
         in2="result5"
         id="feComposite7356" />
      <feMorphology
         operator="dilate"
         radius="1.5"
         result="result3"
         id="feMorphology7358" />
      <feTurbulence
         numOctaves="5"
         baseFrequency="0.03"
         type="fractalNoise"
         seed="7"
         id="feTurbulence7360" />
      <feGaussianBlur
         stdDeviation="0.5"
         result="result91"
         id="feGaussianBlur7362" />
      <feDisplacementMap
         in="result3"
         xChannelSelector="R"
         yChannelSelector="G"
         scale="27"
         result="result4"
         in2="result91"
         id="feDisplacementMap7364" />
      <feComposite
         in="result4"
         k3="0.8"
         k1="1.3"
         result="result2"
         operator="arithmetic"
         in2="result4"
         id="feComposite7366" />
      <feBlend
         in2="result2"
         mode="screen"
         in="result2"
         id="feBlend7368" />
    </filter>
  </defs>
  <sodipodi:namedview
     id="base"
     pagecolor="#ffffff"
     bordercolor="#666666"
     borderopacity="1.0"
     inkscape:pageopacity="0.0"
     inkscape:pageshadow="2"
     inkscape:zoom="2.8284271"
     inkscape:cx="17.390002"
     inkscape:cy="47.441712"
     inkscape:document-units="px"
     inkscape:current-layer="layer1"
     showgrid="false"
     inkscape:window-width="1920"
     inkscape:window-height="1138"
     inkscape:window-x="1912"
     inkscape:window-y="-8"
     inkscape:window-maximized="1"
     units="px" />
  <metadata
     id="metadata7">
    <rdf:RDF>
      <cc:Work
         rdf:about="">
        <dc:format>image/svg+xml</dc:format>
        <dc:type
           rdf:resource="http://purl.org/dc/dcmitype/StillImage" />
        <dc:title></dc:title>
      </cc:Work>
    </rdf:RDF>
  </metadata>
  <g
     inkscape:label="Layer 1"
     inkscape:groupmode="layer"
     id="layer1"
     transform="translate(0,-952.36223)">
    <rect
       style="opacity:1;fill:#999999;fill-opacity:1;fill-rule:nonzero;stroke:#6582f9;stroke-width:1.10000002;stroke-linecap:square;stroke-linejoin:bevel;stroke-miterlimit:4;stroke-dasharray:none;stroke-dashoffset:0;stroke-opacity:1"
       id="rect6993"
       width="99.171722"
       height="98.818176"
       x="0.70710677"
       y="952.83698"
       ry="3.0052037" />
    <path
       inkscape:connector-curvature="0"
       d=""
       style="opacity:1;fill:url(#linearGradient6446);fill-opacity:1;fill-rule:nonzero;stroke:none;stroke-width:2;stroke-linecap:square;stroke-linejoin:bevel;stroke-miterlimit:4;stroke-dasharray:none;stroke-dashoffset:0;stroke-opacity:1"
       id="path6430"
       inkscape:transform-center-x="0.40717073"
       ry="3.8505147"
       rx="4.4504189"
       cy="586.39716"
       cx="-893.72418" />
    <path
       sodipodi:nodetypes="sssssssssssssssss"
       inkscape:connector-curvature="0"
       id="path7370"
       d="m 86.267028,1014.7088 c -10e-7,1.8794 -0.499609,3.6698 -1.403093,5.2983 -0.903485,1.6285 -2.210847,3.0951 -3.826356,4.3267 -1.61551,1.2316 -3.539167,2.2283 -5.675243,2.9171 -2.136077,0.6888 -4.484571,1.0697 -6.949755,1.0697 -2.465184,0 -4.813678,-0.3809 -6.949754,-1.0697 -2.136076,-0.6888 -4.059734,-1.6855 -5.675243,-2.9171 -1.61551,-1.2316 -2.922871,-2.6982 -3.826356,-4.3267 -0.903484,-1.6285 -1.403092,-3.4189 -1.403093,-5.2983 -10e-7,-1.8794 0.499605,-3.6698 1.403089,-5.2983 0.903485,-1.6285 2.210847,-3.0951 3.826357,-4.3267 1.61551,-1.2316 3.539168,-2.2283 5.675245,-2.9171 2.136076,-0.6888 4.484571,-1.0697 6.949755,-1.0697 2.465184,0 4.813679,0.3809 6.949756,1.0697 2.136076,0.6888 4.059735,1.6855 5.675245,2.9171 1.61551,1.2316 2.922872,2.6982 3.826356,4.3267 0.903485,1.6285 1.403091,3.4189 1.40309,5.2983 z"
       style="opacity:1;fill:#4a4a4a;fill-opacity:1;fill-rule:nonzero;stroke:#3d3d3d;stroke-width:1.39870417;stroke-linecap:square;stroke-linejoin:bevel;stroke-miterlimit:4;stroke-dasharray:none;stroke-dashoffset:0;stroke-opacity:1;filter:url(#filter7350)"
       transform="matrix(0.79016407,0,0,0.78273792,18.244505,223.28618)" />
    <path
       style="opacity:1;fill:#4a4a4a;fill-opacity:1;fill-rule:nonzero;stroke:#3d3d3d;stroke-width:1.10000002;stroke-linecap:square;stroke-linejoin:bevel;stroke-miterlimit:4;stroke-dasharray:none;stroke-dashoffset:0;stroke-opacity:1;filter:url(#filter7350)"
       d="m 45.608388,1020.7193 c -10e-7,1.8794 -0.499609,3.6698 -1.403093,5.2983 -0.903485,1.6285 -2.210847,3.0951 -3.826356,4.3267 -1.61551,1.2316 -3.539167,2.2283 -5.675243,2.9171 -2.136077,0.6888 -4.484571,1.0697 -6.949755,1.0697 -2.465184,0 -4.813678,-0.3809 -6.949754,-1.0697 -2.136076,-0.6888 -4.059734,-1.6855 -5.675243,-2.9171 -1.615511,-1.2316 -2.922872,-2.6982 -3.826357,-4.3267 -0.903484,-1.6285 -1.4030908,-3.4189 -1.4030918,-5.2983 -1e-6,-1.8794 0.4996038,-3.6698 1.4030878,-5.2983 0.903485,-1.6285 2.210847,-3.0951 3.826358,-4.3267 1.61551,-1.2316 3.539168,-2.2283 5.675245,-2.9171 2.136076,-0.6888 4.484571,-1.0697 6.949755,-1.0697 2.465184,0 4.813679,0.3809 6.949756,1.0697 2.136076,0.6888 4.059735,1.6855 5.675245,2.9171 1.61551,1.2316 2.922872,2.6982 3.826356,4.3267 0.903485,1.6285 1.403091,3.4189 1.40309,5.2983 z"
       id="path7321"
       inkscape:connector-curvature="0"
       sodipodi:nodetypes="sssssssssssssssss" />
    <path
       sodipodi:nodetypes="sssssssssssssssss"
       inkscape:connector-curvature="0"
       id="path7372"
       d="m 69.65002,981.47476 c -10e-7,1.8794 -0.499609,3.66985 -1.403093,5.29835 -0.903485,1.6285 -2.210847,3.0951 -3.826356,4.3267 -1.61551,1.2316 -3.539167,2.2283 -5.675243,2.9171 -2.136077,0.6888 -4.484571,1.0697 -6.949755,1.0697 -2.465184,0 -4.813678,-0.3809 -6.949754,-1.0697 -2.136076,-0.6888 -4.059734,-1.6855 -5.675243,-2.9171 -1.61551,-1.2316 -2.922871,-2.6982 -3.826356,-4.3267 -0.903484,-1.6285 -1.403092,-3.41895 -1.403093,-5.29835 -1e-6,-1.8794 0.499605,-3.6698 1.403089,-5.2983 0.903485,-1.6285 2.210847,-3.0951 3.826357,-4.3267 1.61551,-1.2316 3.539168,-2.2283 5.675245,-2.9171 2.136076,-0.6888 4.484571,-1.0697 6.949755,-1.0697 2.465184,0 4.813679,0.3809 6.949756,1.0697 2.136076,0.6888 4.059735,1.6855 5.675245,2.9171 1.61551,1.2316 2.922872,2.6982 3.826356,4.3267 0.903485,1.6285 1.403091,3.4189 1.40309,5.2983 z"
       style="opacity:1;fill:#4a4a4a;fill-opacity:1;fill-rule:nonzero;stroke:#3d3d3d;stroke-width:1.10000002;stroke-linecap:square;stroke-linejoin:bevel;stroke-miterlimit:4;stroke-dasharray:none;stroke-dashoffset:0;stroke-opacity:1;filter:url(#filter7350)" />
  </g>
</svg>
